# File created by Blade
# Date/Time:  Wed Jan 21 14:43:55 2015
# Frame Rate: 120.000 fps
#------------------------------------------------------
:FULLY-SPECIFIED
:DEGREES
342
root 22.815831 35.328614 -20.646176 -174.550049 8.045689 189.456386
Spine -9.718335 8.660087 -47.295340
Head 2.394352 -25.137342 -19.947444
LeftShoulder -7.273402 -9.341657 9.333090
LeftArm -47.577582 73.979930 -84.230183
LeftForeArm 30.165867 -0.000000 128.145357
LeftHand -3.415370 0.000000 10.923975
LeftHandThumb1 -26.253704 0.000000 33.147579
RightShoulder -9.665151 -28.145900 -8.095961
RightArm 34.070583 -62.682391 41.988047
RightForeArm -45.204065 -0.000000 77.012797
RightHand 9.144684 -0.000000 -30.956415
RightHandThumb1 -24.326973 -0.000000 -32.862282
LeftUpLeg 6.487620 20.090566 17.314751
LeftLeg -7.509238 -0.000000 0.000000
LeftFoot -19.676393 29.029209 -13.070180
LeftToeBase 29.588997 -0.000000 -0.000000
RightUpLeg 0.629076 -2.408554 11.292189
RightLeg -0.423375 -0.000000 0.000000
RightFoot -19.009127 -16.283686 16.377046
RightToeBase 25.222632 -0.000000 -0.000000
343
root 22.838820 35.327131 -20.648835 -174.579674 8.141378 189.511087
Spine -9.755363 8.720100 -47.448976
Head 2.321203 -24.970431 -20.453234
LeftShoulder -7.278321 -9.345220 9.313897
LeftArm -47.522393 73.890852 -84.144321
LeftForeArm 30.476568 0.000000 128.215639
LeftHand -3.548989 -0.000000 10.763120
LeftHandThumb1 -26.253704 0.000000 33.147579
RightShoulder -9.596682 -28.192322 -8.216363
RightArm 34.072746 -62.709772 42.119307
RightForeArm -45.170109 -0.000000 76.955666
RightHand 9.184383 0.000000 -30.871713
RightHandThumb1 -24.326973 -0.000000 -32.862282
LeftUpLeg 6.550907 20.146085 17.429092
LeftLeg -7.449846 -0.000000 0.000000
LeftFoot -19.734201 29.040129 -13.103764
LeftToeBase 29.623588 -0.000000 -0.000000
RightUpLeg 0.670064 -2.423152 11.356316
RightLeg -0.398909 -0.000000 0.000000
RightFoot -18.983796 -16.181674 16.393746
RightToeBase 25.234348 -0.000000 -0.000000
344
root 22.864606 35.325124 -20.656826 -174.625419 8.195983 189.578360
Spine -9.752708 8.748593 -47.566977
Head 2.218372 -24.818791 -20.946440
LeftShoulder -7.350194 -9.322208 9.310649
LeftArm -47.394082 73.886859 -84.016397
LeftForeArm 30.642754 -0.000000 128.268899
LeftHand -3.552263 0.000000 10.990355
LeftHandThumb1 -26.253704 0.000000 33.147579
RightShoulder -9.526787 -28.158118 -8.355879
RightArm 33.960166 -62.786957 42.357858
RightForeArm -45.167321 0.000000 76.925970
RightHand 9.120661 0.000000 -30.842775
RightHandThumb1 -24.326973 -0.000000 -32.862282
LeftUpLeg 6.645507 20.177271 17.565015
LeftLeg -7.431902 -0.000000 0.000000
LeftFoot -19.751503 29.047337 -13.115112
LeftToeBase 29.622516 -0.000000 -0.000000
RightUpLeg 0.749567 -2.515994 11.437701
RightLeg -0.405446 -0.000000 0.000000
RightFoot -18.955522 -16.033468 16.397224
RightToeBase 25.368888 -0.000000 -0.000000
345
root 22.889788 35.322470 -20.661674 -174.665567 8.282090 189.639220
Spine -9.757812 8.794173 -47.691330
Head 2.110209 -24.744375 -21.469226
LeftShoulder -7.396186 -9.376282 9.329746
LeftArm -47.497983 73.828761 -84.120636
LeftForeArm 30.666815 -0.000000 128.313645
LeftHand -3.467204 -0.000000 11.077334
LeftHandThumb1 -26.253704 0.000000 33.147579
RightShoulder -9.528348 -28.123802 -8.468934
RightArm 34.056613 -62.897786 42.372721
RightForeArm -45.221331 -0.000000 76.859908
RightHand 8.756845 -0.000000 -31.121233
RightHandThumb1 -24.326973 -0.000000 -32.862282
LeftUpLeg 6.736255 20.204336 17.694313
LeftLeg -7.398104 -0.000000 0.000000
LeftFoot -19.789980 29.068638 -13.133933
LeftToeBase 29.625715 -0.000000 -0.000000
RightUpLeg 0.813388 -2.550666 11.511481
RightLeg -0.405414 -0.000000 0.000000
RightFoot -18.869446 -15.960582 16.378368
RightToeBase 25.132749 -0.000000 -0.000000
346
root 22.914678 35.320261 -20.666886 -174.713071 8.372518 189.711156
Spine -9.772821 8.838470 -47.793084
Head 2.031716 -24.675709 -21.981527
LeftShoulder -7.466658 -9.386257 9.332221
LeftArm -47.384742 73.802478 -83.998265
LeftForeArm 30.760159 -0.000000 128.349821
LeftHand -3.455560 -0.000000 11.025343
LeftHandThumb1 -26.253704 0.000000 33.147579
RightShoulder -9.499684 -28.170229 -8.564968
RightArm 34.177206 -62.927038 42.348355
RightForeArm -45.177720 -0.000000 76.833510
RightHand 8.662105 -0.000000 -31.178838
RightHandThumb1 -24.326973 -0.000000 -32.862282
LeftUpLeg 6.851371 20.241680 17.835471
LeftLeg -7.394051 -0.000000 0.000000
LeftFoot -19.808542 29.108224 -13.148073
LeftToeBase 29.609782 -0.000000 -0.000000
RightUpLeg 0.875340 -2.602093 11.587867
RightLeg -0.375353 -0.000000 0.000000
RightFoot -18.836837 -15.785139 16.415028
RightToeBase 25.247907 -0.000000 -0.000000
347
root 22.938054 35.318646 -20.670269 -174.756525 8.449905 189.772487
Spine -9.776122 8.877186 -47.906391
Head 1.907479 -24.535641 -22.425644
LeftShoulder -7.503726 -9.410642 9.345747
LeftArm -47.402978 73.749807 -84.025539
LeftForeArm 30.940173 -0.000000 128.379120
LeftHand -3.501754 -0.000000 10.990690
LeftHandThumb1 -26.253704 0.000000 33.147579
RightShoulder -9.471773 -28.162342 -8.636203
RightArm 34.204721 -62.980843 42.385458
RightForeArm -45.182653 -0.000000 76.822123
RightHand 8.464075 -0.000000 -31.136055
RightHandThumb1 -24.326973 -0.000000 -32.862282
LeftUpLeg 6.946917 20.270363 17.961441
LeftLeg -7.378172 -0.000000 0.000000
LeftFoot -19.847196 29.121947 -13.195276
LeftToeBase 29.638035 -0.000000 -0.000000
RightUpLeg 0.923216 -2.651654 11.655300
RightLeg -0.332918 -0.000000 0.000000
RightFoot -18.823485 -15.660651 16.452400
RightToeBase 25.213477 -0.000000 -0.000000
348
root 22.960615 35.316112 -20.673323 -174.806253 8.536869 189.833993
Spine -9.776474 8.921799 -47.977199
Head 1.767745 -24.307486 -22.925905
LeftShoulder -7.538046 -9.413456 9.282628
LeftArm -47.347526 73.729452 -83.910338
LeftForeArm 31.106193 -0.000000 128.427176
LeftHand -3.601564 -0.000000 10.926287
LeftHandThumb1 -26.253704 0.000000 33.147579
RightShoulder -9.442896 -28.176102 -8.760278
RightArm 34.282127 -63.005808 42.406572
RightForeArm -45.133858 -0.000000 76.800016
RightHand 8.660266 -0.000000 -30.812421
RightHandThumb1 -24.326973 -0.000000 -32.862282
LeftUpLeg 7.056838 20.300964 18.088452
LeftLeg -7.373085 -0.000000 0.000000
LeftFoot -19.855415 29.155024 -13.200475
LeftToeBase 29.649041 -0.000000 -0.000000
RightUpLeg 0.978623 -2.686861 11.718648
RightLeg -0.293691 -0.000000 0.000000
RightFoot -18.804666 -15.531231 16.448037
RightToeBase 25.228015 -0.000000 -0.000000
